# Blender v2.79 (sub 0) OBJ File: ''
# www.blender.org
v 0.804190 0.133712 -0.108700
v 0.804022 0.115122 -0.108435
v -0.190847 0.133586 -0.749857
v -0.191015 0.114996 -0.749592
v 0.789938 0.134156 -0.086582
v 0.789770 0.115567 -0.086317
v -0.205098 0.134030 -0.727739
v -0.205267 0.115441 -0.727474
v -0.000000 -0.009761 -0.875444
v 0.000000 0.106396 -0.875444
v 0.170791 -0.009761 -0.858623
v 0.170791 0.106396 -0.858623
v 0.335018 -0.009761 -0.808805
v 0.335018 0.106396 -0.808805
v 0.486371 -0.009761 -0.727905
v 0.486371 0.106396 -0.727905
v 0.619032 -0.009761 -0.619032
v 0.619032 0.106396 -0.619032
v 0.727905 -0.009761 -0.486371
v 0.727905 0.106396 -0.486371
v 0.808805 -0.009761 -0.335018
v 0.808805 0.106396 -0.335018
v 0.858623 -0.009761 -0.170791
v 0.858623 0.106396 -0.170791
v 0.875444 -0.009761 -0.000000
v 0.875444 0.106396 -0.000000
v 0.858623 -0.009761 0.170791
v 0.858623 0.106396 0.170791
v 0.808805 -0.009761 0.335018
v 0.808805 0.106396 0.335018
v 0.727905 -0.009761 0.486371
v 0.727905 0.106396 0.486371
v 0.619033 -0.009761 0.619032
v 0.619033 0.106396 0.619032
v 0.486371 -0.009761 0.727905
v 0.486371 0.106396 0.727905
v 0.335018 -0.009761 0.808805
v 0.335018 0.106396 0.808805
v 0.170790 -0.009761 0.858623
v 0.170791 0.106396 0.858623
v -0.000000 -0.009761 0.875444
v -0.000000 0.106396 0.875444
v -0.170791 -0.009761 0.858623
v -0.170791 0.106396 0.858623
v -0.335018 -0.009761 0.808805
v -0.335018 0.106396 0.808805
v -0.486371 -0.009761 0.727905
v -0.486371 0.106396 0.727905
v -0.619033 -0.009761 0.619032
v -0.619033 0.106396 0.619032
v -0.727905 -0.009761 0.486370
v -0.727905 0.106396 0.486370
v -0.808805 -0.009761 0.335017
v -0.808805 0.106396 0.335017
v -0.858623 -0.009761 0.170790
v -0.858623 0.106396 0.170790
v -0.875444 -0.009761 -0.000001
v -0.875444 0.106396 -0.000001
v -0.858622 -0.009761 -0.170792
v -0.858622 0.106396 -0.170792
v -0.808805 -0.009761 -0.335019
v -0.808804 0.106396 -0.335019
v -0.727905 -0.009761 -0.486372
v -0.727904 0.106396 -0.486372
v -0.619032 -0.009761 -0.619033
v -0.619032 0.106396 -0.619033
v -0.486370 -0.009761 -0.727906
v -0.486370 0.106396 -0.727906
v -0.335017 -0.009761 -0.808805
v -0.335017 0.106396 -0.808805
v -0.170789 -0.009761 -0.858623
v -0.170789 0.106396 -0.858623
v -0.000000 -0.026416 -0.953683
v 0.000000 0.026416 -0.953683
v 0.186054 -0.026416 -0.935358
v 0.186054 0.026416 -0.935358
v 0.364959 -0.026416 -0.881088
v 0.364959 0.026416 -0.881088
v 0.529838 -0.026416 -0.792958
v 0.529838 0.026416 -0.792959
v 0.674356 -0.026416 -0.674356
v 0.674356 0.026416 -0.674356
v 0.792959 -0.026416 -0.529838
v 0.792959 0.026416 -0.529838
v 0.881088 -0.026416 -0.364959
v 0.881088 0.026416 -0.364959
v 0.935358 -0.026416 -0.186054
v 0.935358 0.026416 -0.186054
v 0.953683 -0.026416 -0.000000
v 0.953683 0.026416 -0.000000
v 0.935359 -0.026416 0.186054
v 0.935358 0.026416 0.186054
v 0.881088 -0.026416 0.364959
v 0.881088 0.026416 0.364959
v 0.792959 -0.026416 0.529838
v 0.792959 0.026416 0.529838
v 0.674356 -0.026416 0.674356
v 0.674356 0.026416 0.674356
v 0.529838 -0.026416 0.792958
v 0.529838 0.026416 0.792959
v 0.364959 -0.026416 0.881088
v 0.364959 0.026416 0.881088
v 0.186054 -0.026416 0.935358
v 0.186054 0.026416 0.935358
v -0.000000 -0.026416 0.953683
v -0.000000 0.026416 0.953683
v -0.186055 -0.026416 0.935358
v -0.186055 0.026416 0.935358
v -0.364959 -0.026416 0.881088
v -0.364959 0.026416 0.881088
v -0.529838 -0.026416 0.792958
v -0.529838 0.026416 0.792958
v -0.674356 -0.026416 0.674355
v -0.674356 0.026416 0.674355
v -0.792959 -0.026416 0.529837
v -0.792959 0.026416 0.529837
v -0.881089 -0.026416 0.364958
v -0.881089 0.026416 0.364958
v -0.935359 -0.026416 0.186053
v -0.935358 0.026416 0.186053
v -0.953683 -0.026416 -0.000001
v -0.953683 0.026416 -0.000001
v -0.935358 -0.026416 -0.186055
v -0.935358 0.026416 -0.186056
v -0.881088 -0.026416 -0.364960
v -0.881088 0.026416 -0.364960
v -0.792958 -0.026416 -0.529839
v -0.792958 0.026416 -0.529839
v -0.674355 -0.026416 -0.674357
v -0.674355 0.026416 -0.674357
v -0.529837 -0.026416 -0.792959
v -0.529837 0.026416 -0.792959
v -0.364958 -0.026416 -0.881089
v -0.364957 0.026416 -0.881089
v -0.186053 -0.026416 -0.935359
v -0.186053 0.026416 -0.935359
v 0.226767 0.135940 0.756431
v 0.226860 0.117349 0.756270
v -0.818392 0.135520 0.200712
v -0.818299 0.116929 0.200551
v 0.214413 0.135677 0.779665
v 0.214506 0.117086 0.779504
v -0.830746 0.135258 0.223946
v -0.830653 0.116666 0.223785
v -0.285713 0.146573 0.415925
v -0.285713 0.127981 0.415925
v 0.651273 0.146573 -0.307427
v 0.651273 0.127981 -0.307427
v -0.301794 0.146573 0.395094
v -0.301794 0.127981 0.395094
v 0.635192 0.146573 -0.328257
v 0.635192 0.127981 -0.328257
v 0.079962 0.137168 -0.635228
v 0.075074 0.119294 -0.636749
v -0.279331 0.139480 0.492639
v -0.284219 0.121607 0.491118
v 0.104062 0.129922 -0.627536
v 0.099174 0.112048 -0.629057
v -0.255231 0.132234 0.500331
v -0.260119 0.114361 0.498811
v 0.614054 0.120715 0.224825
v 0.616217 0.102943 0.219811
v -0.481568 0.113750 -0.223221
v -0.479405 0.095977 -0.228235
v 0.604574 0.112988 0.248125
v 0.606738 0.095216 0.243112
v -0.491048 0.106022 -0.199920
v -0.488885 0.088250 -0.204934
vt 0.924251 0.418271
vt 0.956020 0.404479
vt 0.956020 0.418271
vt 0.956016 0.432062
vt 0.924251 0.418272
vt 0.956016 0.418271
vt 0.924251 0.404479
vt 0.956020 0.390687
vt 0.956020 0.404479
vt 0.968234 0.000000
vt 0.999998 0.013793
vt 0.968234 0.013791
vt 1.000000 0.041377
vt 0.968234 0.027585
vt 1.000000 0.027589
vt 0.968234 0.013797
vt 1.000000 0.027582
vt 0.968234 0.027585
vt 0.198935 0.073162
vt 0.397439 0.033102
vt 0.397380 0.074203
vt 0.198994 0.032060
vt 0.397502 0.008398
vt 0.199057 0.007357
vt 0.397568 0.001041
vt 0.000339 0.001041
vt 0.198718 0.010274
vt 0.000273 0.011315
vt 0.198654 0.037782
vt 0.000209 0.038824
vt 0.198596 0.081469
vt 0.000151 0.082511
vt 0.198544 0.139655
vt 0.000099 0.140696
vt 0.198502 0.210104
vt 0.000057 0.211146
vt 0.198471 0.290109
vt 0.000026 0.291151
vt 0.198452 0.376595
vt 0.000006 0.377637
vt 0.198445 0.466239
vt 0.000000 0.467281
vt 0.198452 0.555596
vt 0.000007 0.556637
vt 0.198471 0.641231
vt 0.000026 0.642273
vt 0.198502 0.719855
vt 0.000057 0.720896
vt 0.198544 0.788444
vt 0.000099 0.789486
vt 0.198596 0.844364
vt 0.000151 0.845406
vt 0.198654 0.885466
vt 0.000209 0.886508
vt 0.198718 0.910170
vt 0.000273 0.911211
vt 0.198784 0.917526
vt 0.000339 0.918568
vt 0.199123 0.917526
vt 0.397502 0.908294
vt 0.397568 0.918568
vt 0.199057 0.907253
vt 0.397439 0.880785
vt 0.198994 0.879744
vt 0.397380 0.837099
vt 0.198935 0.836057
vt 0.397329 0.778912
vt 0.198884 0.777871
vt 0.397286 0.708463
vt 0.198841 0.707422
vt 0.397255 0.628458
vt 0.198810 0.627417
vt 0.397236 0.541972
vt 0.198791 0.540930
vt 0.397229 0.452328
vt 0.198784 0.451287
vt 0.397236 0.362971
vt 0.198791 0.361930
vt 0.397255 0.277336
vt 0.198810 0.276295
vt 0.397287 0.198713
vt 0.758275 0.907326
vt 0.753743 0.917636
vt 0.749121 0.910315
vt 0.198841 0.197671
vt 0.397329 0.130123
vt 0.198884 0.129082
vt 0.686289 0.197543
vt 0.689557 0.128968
vt 0.722734 0.139801
vt 0.488361 0.079701
vt 0.578683 0.035399
vt 0.578619 0.080174
vt 0.488425 0.034926
vt 0.578753 0.008488
vt 0.488494 0.008014
vt 0.578825 0.000474
vt 0.397938 0.000474
vt 0.488124 0.011192
vt 0.397866 0.011665
vt 0.488055 0.041159
vt 0.397796 0.041633
vt 0.487991 0.088750
vt 0.397732 0.089224
vt 0.487935 0.152136
vt 0.397676 0.152610
vt 0.487889 0.228881
vt 0.397631 0.229355
vt 0.487855 0.316036
vt 0.397596 0.316510
vt 0.487834 0.410252
vt 0.397575 0.410726
vt 0.487827 0.507907
vt 0.397568 0.508381
vt 0.487834 0.605250
vt 0.397575 0.605724
vt 0.487855 0.698539
vt 0.397597 0.699012
vt 0.487889 0.784188
vt 0.397631 0.784662
vt 0.487935 0.858908
vt 0.397677 0.859382
vt 0.487991 0.919826
vt 0.397733 0.920300
vt 0.488055 0.964601
vt 0.397797 0.965074
vt 0.488125 0.991512
vt 0.397866 0.991986
vt 0.488197 0.999526
vt 0.397938 1.000000
vt 0.488566 0.999526
vt 0.578753 0.988808
vt 0.578825 1.000000
vt 0.488494 0.988335
vt 0.578683 0.958841
vt 0.488425 0.958367
vt 0.578619 0.911250
vt 0.488361 0.910776
vt 0.578563 0.847864
vt 0.488305 0.847390
vt 0.578517 0.771118
vt 0.488259 0.770645
vt 0.578483 0.683963
vt 0.488225 0.683489
vt 0.578462 0.589747
vt 0.488204 0.589274
vt 0.578455 0.492092
vt 0.488197 0.491618
vt 0.578462 0.394749
vt 0.488204 0.394276
vt 0.578483 0.301461
vt 0.488225 0.300987
vt 0.578517 0.215811
vt 0.611836 0.988414
vt 0.606899 0.999646
vt 0.601865 0.991670
vt 0.488259 0.215337
vt 0.578564 0.141092
vt 0.488305 0.140618
vt 0.675346 0.784449
vt 0.671787 0.859153
vt 0.635644 0.847351
vt 0.956313 0.324847
vt 0.924251 0.376807
vt 0.924553 0.324713
vt 0.956012 0.376941
vt 0.924553 0.390553
vt 0.956313 0.324579
vt 0.924251 0.272619
vt 0.956012 0.272485
vt 0.924553 0.258873
vt 0.956313 0.258739
vt 0.956313 0.338969
vt 0.964482 0.379355
vt 0.956313 0.392636
vt 0.964482 0.272021
vt 0.956313 0.312406
vt 0.956314 0.258739
vt 0.924251 0.589357
vt 0.892478 0.004773
vt 0.924241 0.004607
vt 0.892488 0.000165
vt 0.924251 0.000000
vt 0.860704 0.584749
vt 0.860715 0.000000
vt 0.892467 0.584915
vt 0.860715 0.589357
vt 0.967484 0.004610
vt 0.968234 0.584768
vt 0.967484 0.589378
vt 0.966735 0.584768
vt 0.967484 0.004610
vt 0.967484 0.589379
vt 0.830165 0.598819
vt 0.860704 0.000842
vt 0.860704 0.599661
vt 0.787259 0.603068
vt 0.805431 0.598819
vt 0.817798 0.602226
vt 0.774892 0.000842
vt 0.805431 0.000000
vt 0.848337 0.603068
vt 0.817798 0.003407
vt 0.817798 0.003407
vt 0.817798 0.602226
vt 0.966734 0.127283
vt 0.936134 0.015349
vt 0.966734 0.013263
vt 0.954852 0.000000
vt 0.924251 0.256653
vt 0.954852 0.144718
vt 0.954852 0.258739
vt 0.936134 0.129370
vt 0.966734 0.131456
vt 0.966734 0.245477
vt 0.924251 0.116107
vt 0.924251 0.002086
vt 0.924251 0.404479
vt 0.924251 0.432064
vt 0.924251 0.390687
vt 0.999998 0.000002
vt 0.968234 0.041374
vt 1.000000 0.013793
vt 0.199123 0.000000
vt 0.198784 0.000000
vt 0.744589 0.885642
vt 0.740320 0.844567
vt 0.762545 0.879779
vt 0.766387 0.836056
vt 0.736477 0.788669
vt 0.733209 0.720094
vt 0.769655 0.777835
vt 0.730642 0.641478
vt 0.772222 0.707355
vt 0.728874 0.555843
vt 0.773991 0.627323
vt 0.774892 0.540816
vt 0.727972 0.466479
vt 0.727972 0.376821
vt 0.774892 0.451158
vt 0.728874 0.290314
vt 0.773991 0.361794
vt 0.730642 0.210282
vt 0.772222 0.276159
vt 0.733210 0.139802
vt 0.769655 0.197543
vt 0.736477 0.081581
vt 0.766387 0.128968
vt 0.740320 0.037857
vt 0.762545 0.073069
vt 0.744589 0.010311
vt 0.758275 0.031994
vt 0.749122 0.000000
vt 0.753743 0.007322
vt 0.693399 0.073069
vt 0.719467 0.081581
vt 0.697669 0.031994
vt 0.715624 0.037857
vt 0.702201 0.007322
vt 0.711355 0.010311
vt 0.706822 0.000000
vt 0.725302 0.210282
vt 0.727070 0.290313
vt 0.683722 0.276158
vt 0.727972 0.376820
vt 0.681953 0.361794
vt 0.727972 0.466479
vt 0.681052 0.451158
vt 0.727071 0.555842
vt 0.681052 0.540816
vt 0.725302 0.641478
vt 0.681953 0.627323
vt 0.722735 0.720094
vt 0.683722 0.707354
vt 0.719467 0.788669
vt 0.686289 0.777835
vt 0.715625 0.844568
vt 0.689557 0.836056
vt 0.711355 0.885643
vt 0.693399 0.879780
vt 0.706823 0.910315
vt 0.697669 0.907326
vt 0.702202 0.917637
vt 0.488566 0.000000
vt 0.488196 0.000000
vt 0.596927 0.964793
vt 0.592276 0.920047
vt 0.616487 0.958406
vt 0.620673 0.910775
vt 0.588090 0.859153
vt 0.584530 0.784449
vt 0.624233 0.847351
vt 0.581733 0.698807
vt 0.627030 0.770571
vt 0.579807 0.605519
vt 0.628956 0.683387
vt 0.629938 0.589149
vt 0.578825 0.508169
vt 0.578825 0.410497
vt 0.629938 0.491478
vt 0.579807 0.316259
vt 0.628956 0.394128
vt 0.581733 0.229075
vt 0.627029 0.300839
vt 0.584530 0.152296
vt 0.624233 0.215198
vt 0.588090 0.088872
vt 0.620673 0.140494
vt 0.592276 0.041240
vt 0.616487 0.079599
vt 0.596927 0.011232
vt 0.611836 0.034853
vt 0.601864 0.000000
vt 0.606898 0.007976
vt 0.667601 0.920047
vt 0.639204 0.910775
vt 0.662950 0.964793
vt 0.643390 0.958406
vt 0.658012 0.991671
vt 0.648041 0.988415
vt 0.652978 0.999647
vt 0.632847 0.770572
vt 0.630921 0.683388
vt 0.678143 0.698808
vt 0.629938 0.589150
vt 0.680070 0.605519
vt 0.629938 0.491478
vt 0.681052 0.508169
vt 0.630920 0.394128
vt 0.681052 0.410498
vt 0.632847 0.300840
vt 0.680070 0.316259
vt 0.635644 0.215198
vt 0.678143 0.229075
vt 0.639203 0.140494
vt 0.675346 0.152296
vt 0.643389 0.079599
vt 0.671787 0.088872
vt 0.648040 0.034853
vt 0.667601 0.041240
vt 0.652978 0.007976
vt 0.662950 0.011232
vt 0.658012 0.000000
vt 0.956313 0.390687
vt 0.924553 0.324713
vt 0.964482 0.325688
vt 0.964482 0.325688
vt 0.892488 0.589522
vt 0.968234 0.000000
vt 0.966734 0.000000
vt 0.830165 0.000000
vt 0.774893 0.599661
vt 0.924251 0.142632
vn 0.5416 -0.0169 -0.8405
vn -0.8406 -0.0001 -0.5416
vn -0.5416 0.0169 0.8405
vn 0.8406 0.0001 0.5417
vn 0.0091 0.9999 -0.0143
vn -0.0091 -0.9999 0.0143
vn 0.0980 -0.0000 -0.9952
vn 0.2903 -0.0000 -0.9569
vn 0.4714 -0.0000 -0.8819
vn 0.6344 -0.0000 -0.7730
vn 0.7730 -0.0000 -0.6344
vn 0.8819 -0.0000 -0.4714
vn 0.9569 -0.0000 -0.2903
vn 0.9952 -0.0000 -0.0980
vn 0.9952 -0.0000 0.0980
vn 0.9569 0.0000 0.2903
vn 0.8819 0.0000 0.4714
vn 0.7730 0.0000 0.6344
vn 0.6344 -0.0000 0.7730
vn 0.4714 0.0000 0.8819
vn 0.2903 -0.0000 0.9569
vn 0.0980 0.0000 0.9952
vn -0.0980 0.0000 0.9952
vn -0.2903 0.0000 0.9569
vn -0.4714 0.0000 0.8819
vn -0.6344 0.0000 0.7730
vn -0.7730 0.0000 0.6344
vn -0.8819 0.0000 0.4714
vn -0.9569 0.0000 0.2903
vn -0.9952 0.0000 0.0980
vn -0.9952 0.0000 -0.0980
vn -0.9569 0.0000 -0.2903
vn -0.8819 0.0000 -0.4714
vn -0.7730 0.0000 -0.6344
vn -0.6344 0.0000 -0.7730
vn -0.4714 0.0000 -0.8819
vn 0.0000 1.0000 0.0000
vn -0.2903 0.0000 -0.9569
vn -0.0980 0.0000 -0.9952
vn 0.0000 -1.0000 0.0000
vn 0.4694 0.0100 -0.8829
vn -0.8829 -0.0004 -0.4695
vn -0.4694 -0.0100 0.8829
vn 0.8829 0.0004 0.4695
vn -0.0050 1.0000 0.0086
vn 0.0050 -1.0000 -0.0087
vn 0.6111 0.0000 0.7916
vn 0.7916 0.0000 -0.6111
vn -0.6111 -0.0000 -0.7916
vn -0.7916 0.0000 0.6111
vn -0.9158 0.2753 -0.2923
vn -0.3035 0.0020 0.9528
vn 0.9158 -0.2754 0.2923
vn 0.3035 -0.0020 -0.9528
vn 0.2629 0.9613 0.0818
vn -0.2629 -0.9613 -0.0818
vn 0.3602 0.2936 -0.8854
vn -0.9256 -0.0059 -0.3785
vn -0.3602 -0.2936 0.8854
vn 0.9256 0.0059 0.3785
vn -0.1164 0.9559 0.2697
vn 0.1164 -0.9559 -0.2697
vn 0.8406 0.0001 0.5416
vn -0.0050 1.0000 0.0087
vn 0.0050 -0.9999 -0.0087
vn -0.9158 0.2754 -0.2923
vn 0.9158 -0.2753 0.2923
s off
f 2/1/1 3/2/1 1/3/1
f 4/4/2 7/5/2 3/6/2
f 8/7/3 5/8/3 7/9/3
f 6/10/4 1/11/4 5/12/4
f 7/13/5 1/14/5 3/15/5
f 4/16/6 6/17/6 8/18/6
f 10/19/7 11/20/7 9/21/7
f 12/22/8 13/23/8 11/20/8
f 14/24/9 15/25/9 13/23/9
f 15/26/10 18/27/10 17/28/10
f 17/28/11 20/29/11 19/30/11
f 19/30/12 22/31/12 21/32/12
f 21/32/13 24/33/13 23/34/13
f 23/34/14 26/35/14 25/36/14
f 25/36/15 28/37/15 27/38/15
f 27/38/16 30/39/16 29/40/16
f 29/40/17 32/41/17 31/42/17
f 31/42/18 34/43/18 33/44/18
f 33/44/19 36/45/19 35/46/19
f 35/46/20 38/47/20 37/48/20
f 37/48/21 40/49/21 39/50/21
f 39/50/22 42/51/22 41/52/22
f 41/52/23 44/53/23 43/54/23
f 43/54/24 46/55/24 45/56/24
f 45/56/25 48/57/25 47/58/25
f 48/59/26 49/60/26 47/61/26
f 50/62/27 51/63/27 49/60/27
f 52/64/28 53/65/28 51/63/28
f 54/66/29 55/67/29 53/65/29
f 56/68/30 57/69/30 55/67/30
f 58/70/31 59/71/31 57/69/31
f 60/72/32 61/73/32 59/71/32
f 62/74/33 63/75/33 61/73/33
f 64/76/34 65/77/34 63/75/34
f 66/78/35 67/79/35 65/77/35
f 68/80/36 69/81/36 67/79/36
f 18/82/37 16/83/37 14/84/37
f 70/85/38 71/86/38 69/81/38
f 72/87/39 9/21/39 71/86/39
f 69/88/40 71/89/40 23/90/40
f 74/91/7 75/92/7 73/93/7
f 76/94/8 77/95/8 75/92/8
f 78/96/9 79/97/9 77/95/9
f 79/98/10 82/99/10 81/100/10
f 81/100/11 84/101/11 83/102/11
f 83/102/12 86/103/12 85/104/12
f 85/104/13 88/105/13 87/106/13
f 87/106/14 90/107/14 89/108/14
f 89/108/15 92/109/15 91/110/15
f 91/110/16 94/111/16 93/112/16
f 93/112/17 96/113/17 95/114/17
f 95/114/18 98/115/18 97/116/18
f 97/116/19 100/117/19 99/118/19
f 99/118/20 102/119/20 101/120/20
f 101/120/21 104/121/21 103/122/21
f 103/122/22 106/123/22 105/124/22
f 105/124/23 108/125/23 107/126/23
f 107/126/24 110/127/24 109/128/24
f 109/128/25 112/129/25 111/130/25
f 112/131/26 113/132/26 111/133/26
f 114/134/27 115/135/27 113/132/27
f 116/136/28 117/137/28 115/135/28
f 118/138/29 119/139/29 117/137/29
f 120/140/30 121/141/30 119/139/30
f 122/142/31 123/143/31 121/141/31
f 124/144/32 125/145/32 123/143/32
f 126/146/33 127/147/33 125/145/33
f 128/148/34 129/149/34 127/147/34
f 130/150/35 131/151/35 129/149/35
f 132/152/36 133/153/36 131/151/36
f 82/154/37 80/155/37 78/156/37
f 134/157/38 135/158/38 133/153/38
f 136/159/39 73/93/39 135/158/39
f 133/160/40 135/161/40 87/162/40
f 138/163/41 139/164/41 137/165/41
f 140/166/42 143/167/42 139/164/42
f 143/168/43 142/169/43 141/170/43
f 141/170/44 138/171/44 137/172/44
f 139/173/45 141/174/45 137/175/45
f 140/176/46 142/177/46 144/178/46
f 145/179/47 148/180/47 147/181/47
f 147/181/48 152/182/48 151/183/48
f 152/182/49 149/184/49 151/185/49
f 150/186/50 145/187/50 149/184/50
f 147/188/37 149/189/37 145/190/37
f 148/191/40 150/192/40 152/193/40
f 154/194/51 155/195/51 153/196/51
f 156/197/52 159/198/52 155/199/52
f 159/198/53 158/200/53 157/201/53
f 157/202/54 154/194/54 153/196/54
f 159/198/55 153/203/55 155/199/55
f 160/204/56 154/194/56 158/205/56
f 161/206/57 164/207/57 163/208/57
f 164/207/58 167/209/58 163/208/58
f 168/210/59 165/211/59 167/212/59
f 165/211/60 162/213/60 161/214/60
f 163/215/61 165/211/61 161/214/61
f 164/207/62 166/216/62 168/217/62
f 2/1/1 4/218/1 3/2/1
f 4/4/2 8/219/2 7/5/2
f 8/7/3 6/220/3 5/8/3
f 6/10/63 2/221/63 1/11/63
f 7/13/5 5/222/5 1/14/5
f 4/16/6 2/223/6 6/17/6
f 10/19/7 12/22/7 11/20/7
f 12/22/8 14/24/8 13/23/8
f 14/24/9 16/224/9 15/25/9
f 15/26/10 16/225/10 18/27/10
f 17/28/11 18/27/11 20/29/11
f 19/30/12 20/29/12 22/31/12
f 21/32/13 22/31/13 24/33/13
f 23/34/14 24/33/14 26/35/14
f 25/36/15 26/35/15 28/37/15
f 27/38/16 28/37/16 30/39/16
f 29/40/17 30/39/17 32/41/17
f 31/42/18 32/41/18 34/43/18
f 33/44/19 34/43/19 36/45/19
f 35/46/20 36/45/20 38/47/20
f 37/48/21 38/47/21 40/49/21
f 39/50/22 40/49/22 42/51/22
f 41/52/23 42/51/23 44/53/23
f 43/54/24 44/53/24 46/55/24
f 45/56/25 46/55/25 48/57/25
f 48/59/26 50/62/26 49/60/26
f 50/62/27 52/64/27 51/63/27
f 52/64/28 54/66/28 53/65/28
f 54/66/29 56/68/29 55/67/29
f 56/68/30 58/70/30 57/69/30
f 58/70/31 60/72/31 59/71/31
f 60/72/32 62/74/32 61/73/32
f 62/74/33 64/76/33 63/75/33
f 64/76/34 66/78/34 65/77/34
f 66/78/35 68/80/35 67/79/35
f 68/80/36 70/85/36 69/81/36
f 14/84/37 12/226/37 18/82/37
f 12/226/37 10/227/37 20/228/37
f 20/228/37 10/227/37 22/229/37
f 10/227/37 72/230/37 22/229/37
f 72/230/37 70/231/37 24/232/37
f 22/229/37 72/230/37 24/232/37
f 70/231/37 68/233/37 26/234/37
f 68/233/37 66/235/37 28/236/37
f 28/236/37 66/235/37 30/237/37
f 66/235/37 64/238/37 30/237/37
f 64/238/37 62/239/37 32/240/37
f 30/237/37 64/238/37 32/240/37
f 62/239/37 60/241/37 34/242/37
f 60/241/37 58/243/37 36/244/37
f 58/243/37 56/245/37 38/246/37
f 56/245/37 54/247/37 40/248/37
f 38/246/37 56/245/37 40/248/37
f 54/247/37 52/249/37 42/250/37
f 52/249/37 50/251/37 44/252/37
f 50/251/37 48/253/37 46/254/37
f 46/254/37 44/252/37 50/251/37
f 44/252/37 42/250/37 52/249/37
f 42/250/37 40/248/37 54/247/37
f 38/246/37 36/244/37 58/243/37
f 36/244/37 34/242/37 60/241/37
f 34/242/37 32/240/37 62/239/37
f 28/236/37 26/234/37 68/233/37
f 26/234/37 24/232/37 70/231/37
f 20/228/37 18/82/37 12/226/37
f 70/85/38 72/87/38 71/86/38
f 72/87/39 10/19/39 9/21/39
f 71/89/40 9/255/40 21/256/40
f 9/255/40 11/257/40 19/258/40
f 11/257/40 13/259/40 17/260/40
f 13/259/40 15/261/40 17/260/40
f 17/260/40 19/258/40 11/257/40
f 19/258/40 21/256/40 9/255/40
f 21/256/40 23/90/40 71/89/40
f 23/90/40 25/262/40 69/88/40
f 25/262/40 27/263/40 67/264/40
f 27/263/40 29/265/40 65/266/40
f 29/265/40 31/267/40 63/268/40
f 65/266/40 29/265/40 63/268/40
f 31/267/40 33/269/40 61/270/40
f 33/269/40 35/271/40 59/272/40
f 35/271/40 37/273/40 57/274/40
f 37/273/40 39/275/40 55/276/40
f 39/275/40 41/277/40 53/278/40
f 41/277/40 43/279/40 51/280/40
f 43/279/40 45/281/40 49/282/40
f 45/281/40 47/283/40 49/282/40
f 49/282/40 51/280/40 43/279/40
f 51/280/40 53/278/40 41/277/40
f 53/278/40 55/276/40 39/275/40
f 55/276/40 57/274/40 37/273/40
f 57/274/40 59/272/40 35/271/40
f 59/272/40 61/270/40 33/269/40
f 61/270/40 63/268/40 31/267/40
f 65/266/40 67/264/40 27/263/40
f 67/264/40 69/88/40 25/262/40
f 74/91/7 76/94/7 75/92/7
f 76/94/8 78/96/8 77/95/8
f 78/96/9 80/284/9 79/97/9
f 79/98/10 80/285/10 82/99/10
f 81/100/11 82/99/11 84/101/11
f 83/102/12 84/101/12 86/103/12
f 85/104/13 86/103/13 88/105/13
f 87/106/14 88/105/14 90/107/14
f 89/108/15 90/107/15 92/109/15
f 91/110/16 92/109/16 94/111/16
f 93/112/17 94/111/17 96/113/17
f 95/114/18 96/113/18 98/115/18
f 97/116/19 98/115/19 100/117/19
f 99/118/20 100/117/20 102/119/20
f 101/120/21 102/119/21 104/121/21
f 103/122/22 104/121/22 106/123/22
f 105/124/23 106/123/23 108/125/23
f 107/126/24 108/125/24 110/127/24
f 109/128/25 110/127/25 112/129/25
f 112/131/26 114/134/26 113/132/26
f 114/134/27 116/136/27 115/135/27
f 116/136/28 118/138/28 117/137/28
f 118/138/29 120/140/29 119/139/29
f 120/140/30 122/142/30 121/141/30
f 122/142/31 124/144/31 123/143/31
f 124/144/32 126/146/32 125/145/32
f 126/146/33 128/148/33 127/147/33
f 128/148/34 130/150/34 129/149/34
f 130/150/35 132/152/35 131/151/35
f 132/152/36 134/157/36 133/153/36
f 78/156/37 76/286/37 82/154/37
f 76/286/37 74/287/37 84/288/37
f 84/288/37 74/287/37 86/289/37
f 74/287/37 136/290/37 86/289/37
f 136/290/37 134/291/37 88/292/37
f 86/289/37 136/290/37 88/292/37
f 134/291/37 132/293/37 90/294/37
f 132/293/37 130/295/37 92/296/37
f 92/296/37 130/295/37 94/297/37
f 130/295/37 128/298/37 94/297/37
f 128/298/37 126/299/37 96/300/37
f 94/297/37 128/298/37 96/300/37
f 126/299/37 124/301/37 98/302/37
f 124/301/37 122/303/37 100/304/37
f 122/303/37 120/305/37 102/306/37
f 120/305/37 118/307/37 104/308/37
f 102/306/37 120/305/37 104/308/37
f 118/307/37 116/309/37 106/310/37
f 116/309/37 114/311/37 108/312/37
f 114/311/37 112/313/37 110/314/37
f 110/314/37 108/312/37 114/311/37
f 108/312/37 106/310/37 116/309/37
f 106/310/37 104/308/37 118/307/37
f 102/306/37 100/304/37 122/303/37
f 100/304/37 98/302/37 124/301/37
f 98/302/37 96/300/37 126/299/37
f 92/296/37 90/294/37 132/293/37
f 90/294/37 88/292/37 134/291/37
f 84/288/37 82/154/37 76/286/37
f 134/157/38 136/159/38 135/158/38
f 136/159/39 74/91/39 73/93/39
f 135/161/40 73/315/40 85/316/40
f 73/315/40 75/317/40 83/318/40
f 75/317/40 77/319/40 81/320/40
f 77/319/40 79/321/40 81/320/40
f 81/320/40 83/318/40 75/317/40
f 83/318/40 85/316/40 73/315/40
f 85/316/40 87/162/40 135/161/40
f 87/162/40 89/322/40 133/160/40
f 89/322/40 91/323/40 131/324/40
f 91/323/40 93/325/40 129/326/40
f 93/325/40 95/327/40 127/328/40
f 95/327/40 97/329/40 125/330/40
f 97/329/40 99/331/40 123/332/40
f 95/327/40 125/330/40 127/328/40
f 99/331/40 101/333/40 121/334/40
f 101/333/40 103/335/40 119/336/40
f 103/335/40 105/337/40 117/338/40
f 105/337/40 107/339/40 115/340/40
f 107/339/40 109/341/40 113/342/40
f 109/341/40 111/343/40 113/342/40
f 113/342/40 115/340/40 107/339/40
f 115/340/40 117/338/40 105/337/40
f 117/338/40 119/336/40 103/335/40
f 119/336/40 121/334/40 101/333/40
f 121/334/40 123/332/40 99/331/40
f 123/332/40 125/330/40 97/329/40
f 127/328/40 129/326/40 93/325/40
f 129/326/40 131/324/40 91/323/40
f 131/324/40 133/160/40 89/322/40
f 138/163/41 140/166/41 139/164/41
f 140/166/42 144/344/42 143/167/42
f 143/168/43 144/345/43 142/169/43
f 141/170/44 142/169/44 138/171/44
f 139/173/64 143/346/64 141/174/64
f 140/176/65 138/347/65 142/177/65
f 145/179/47 146/348/47 148/180/47
f 147/181/48 148/180/48 152/182/48
f 152/182/49 150/186/49 149/184/49
f 150/186/50 146/348/50 145/187/50
f 147/188/37 151/349/37 149/189/37
f 148/191/40 146/350/40 150/192/40
f 154/194/66 156/351/66 155/195/66
f 156/197/52 160/352/52 159/198/52
f 159/198/67 160/352/67 158/200/67
f 157/202/54 158/205/54 154/194/54
f 159/198/55 157/201/55 153/203/55
f 160/204/56 156/351/56 154/194/56
f 161/206/57 162/213/57 164/207/57
f 164/207/58 168/217/58 167/209/58
f 168/210/59 166/353/59 165/211/59
f 165/211/60 166/353/60 162/213/60
f 163/215/61 167/212/61 165/211/61
f 164/207/62 162/213/62 166/216/62
